<?xml version="1.0" encoding="iso-8859-1"?>
<!-- Uploaded to: SVG Repo, www.svgrepo.com, Generator: SVG Repo Mixer Tools -->
<svg version="1.1" id="Layer_1" xmlns="http://www.w3.org/2000/svg" xmlns:xlink="http://www.w3.org/1999/xlink" 
	 viewBox="0 0 512 512" xml:space="preserve">
<rect x="200" y="396.99" style="fill:#C7CFE2;" width="110.62" height="71.02"/>
<path style="fill:#D7DEED;" d="M288.063,42.665C378.839,57.926,448,136.886,448,232c0,106.039-85.961,192-192,192S64,338.039,64,232
	c0-95.136,69.194-174.112,160.001-189.346"/>
<path style="fill:#FF6464;" d="M252.347,66.557l-47.231-47.231c-3.104-3.104-0.906-8.411,3.484-8.411h94.463
	c4.39,0,6.588,5.308,3.484,8.411l-47.231,47.231C257.392,68.481,254.271,68.481,252.347,66.557z"/>
<path style="fill:#D7DEED;" d="M376,504H136v-37c0-1.657,1.343-3,3-3h234c1.657,0,3,1.343,3,3V504z"/>
<path style="fill:#FFE669;" d="M256,232.276l-139.653-80.638c14.157-24.49,34.525-44.858,59.016-59.015L256,232.276z"/>
<path style="fill:#FFCD64;" d="M256,71v161.276L175.362,92.623C199.075,78.825,226.612,71,256,71z"/>
<path style="fill:#FFAA64;" d="M336.638,92.623L256,232.276V71C285.388,71,312.925,78.825,336.638,92.623z"/>
<path style="fill:#FF8C64;" d="M395.653,151.638L256,232.276l80.638-139.653C361.128,106.779,381.497,127.147,395.653,151.638z"/>
<path style="fill:#FF6469;" d="M417.276,232.276H256l139.653-80.638C409.451,175.352,417.276,202.888,417.276,232.276z"/>
<path style="fill:#E18CAF;" d="M417.276,232.276c0,29.388-7.825,56.924-21.623,80.638L256,232.276H417.276z"/>
<path style="fill:#C3B4FA;" d="M395.653,312.914c-14.156,24.49-34.525,44.859-59.015,59.015L256,232.276L395.653,312.914z"/>
<path style="fill:#7DD2F0;" d="M336.638,371.929c-23.713,13.798-51.25,21.623-80.638,21.623V232.276L336.638,371.929z"/>
<path style="fill:#7DE6C3;" d="M256,232.276v161.276c-29.388,0-56.925-7.825-80.638-21.623L256,232.276z"/>
<path style="fill:#96E393;" d="M256,232.276l-80.638,139.653c-24.49-14.156-44.859-34.525-59.016-59.015L256,232.276z"/>
<path style="fill:#AFE164;" d="M256,232.276l-139.653,80.638c-13.798-23.713-21.623-51.25-21.623-80.638H256z"/>
<path style="fill:#D7E664;" d="M256,232.276H94.724c0-29.388,7.825-56.924,21.623-80.638L256,232.276z"/>
<g style="opacity:0.5;">
	<circle style="fill:#FFFFFF;" cx="385.31" cy="266.92" r="9.34"/>
	<circle style="fill:#FFFFFF;" cx="126.69" cy="197.63" r="9.34"/>
	<circle style="fill:#FFFFFF;" cx="290.65" cy="102.97" r="9.34"/>
	<circle style="fill:#FFFFFF;" cx="221.35" cy="361.58" r="9.34"/>
	<circle style="fill:#FFFFFF;" cx="350.66" cy="326.94" r="9.34"/>
	<circle style="fill:#FFFFFF;" cx="161.34" cy="137.62" r="9.339"/>
	<circle style="fill:#FFFFFF;" cx="350.66" cy="137.62" r="9.34"/>
	<circle style="fill:#FFFFFF;" cx="161.34" cy="326.94" r="9.34"/>
	<circle style="fill:#FFFFFF;" cx="126.69" cy="266.92" r="9.34"/>
	<circle style="fill:#FFFFFF;" cx="385.31" cy="197.63" r="9.34"/>
	<circle style="fill:#FFFFFF;" cx="221.35" cy="102.97" r="9.34"/>
	<circle style="fill:#FFFFFF;" cx="290.65" cy="361.58" r="9.34"/>
</g>
<circle style="fill:#FFFFFF;" cx="256" cy="232" r="57"/>
<path style="fill:#FFD782;" d="M258.688,204.75l7.25,14.69l16.211,2.356c2.459,0.357,3.44,3.378,1.661,5.112l-11.73,11.435
	l2.769,16.146c0.42,2.449-2.15,4.316-4.349,3.16l-14.5-7.623l-14.5,7.623c-2.199,1.156-4.769-0.711-4.349-3.16l2.769-16.146
	l-11.73-11.435c-1.779-1.734-0.798-4.755,1.661-5.112l16.211-2.356l7.25-14.69C254.412,202.522,257.588,202.522,258.688,204.75z"/>
<g>
	<path style="fill:#2D2B29;" d="M456,232c0-47.576-16.991-93.676-47.844-129.807c-27.704-32.444-65.031-55.167-106.165-64.871
		l23.666-23.666c2.288-2.288,2.973-5.729,1.734-8.718S323.236,0,320,0H192c-3.236,0-6.153,1.949-7.391,4.938
		s-0.554,6.431,1.734,8.718l23.665,23.665c-41.122,9.702-78.44,32.415-106.143,64.847C72.999,138.303,56,184.412,56,232
		c0,87.908,57.01,162.751,136,189.5V456h-53c-6.065,0-11,4.935-11,11v37c0,4.418,3.582,8,8,8h240c4.418,0,8-3.582,8-8v-37
		c0-6.065-4.935-11-11-11h-53v-34.5C398.99,394.751,456,319.908,456,232z M300.687,16L256,60.687L211.313,16H300.687z
		 M321.678,118.242c1.26,0.728,2.635,1.073,3.993,1.073c2.765,0,5.454-1.435,6.936-4.001l6.19-10.722
		c17.79,11.601,33.011,26.821,44.611,44.611l-81.552,47.084c-2.932,1.692-4.379,4.96-3.906,8.117
		c-0.423,1.797-0.235,3.747,0.682,5.514c3.562,6.86,5.367,14.29,5.367,22.082c0,26.467-21.533,48-48,48s-48-21.533-48-48
		s21.533-48,48-48c7.636,0,14.932,1.737,21.685,5.164c1.634,0.83,3.416,1.036,5.087,0.723c0.662,0.173,1.336,0.258,2.005,0.258
		c2.765,0,5.454-1.435,6.936-4.001l25.608-44.354c2.209-3.826,0.898-8.719-2.928-10.928c-3.826-2.21-8.719-0.899-10.928,2.928
		l-22.644,39.22c-5.395-2.28-11.019-3.79-16.821-4.508V80.21c21.848,1.139,42.489,6.912,60.957,16.353l-6.207,10.751
		C316.541,111.14,317.852,116.033,321.678,118.242z M360,240h47.79c-1.139,21.848-6.912,42.489-16.353,60.957l-76.448-44.137
		c2.231-5.283,3.755-10.932,4.493-16.82H328c4.418,0,8-3.582,8-8s-3.582-8-8-8h-8.508c-0.729-5.788-2.246-11.462-4.497-16.823
		l76.442-44.134c9.441,18.468,15.214,39.109,16.353,60.957H360c-4.418,0-8,3.582-8,8S355.582,240,360,240z M338.797,359.408
		l-44.137-76.447c4.635-3.525,8.776-7.666,12.301-12.301l76.447,44.137C371.808,332.587,356.587,347.808,338.797,359.408z
		 M187.043,367.437l44.137-76.448c5.283,2.231,10.931,3.755,16.82,4.493v88.308C226.152,382.651,205.511,376.878,187.043,367.437z
		 M128.592,314.797l76.447-44.137c3.525,4.636,7.666,8.776,12.301,12.301l-44.137,76.447
		C155.413,347.808,140.192,332.587,128.592,314.797z M173.203,104.592l44.137,76.447c-4.635,3.525-8.776,7.666-12.301,12.301
		l-76.447-44.137C140.192,131.413,155.413,116.192,173.203,104.592z M248,168.518c-5.889,0.738-11.537,2.262-16.82,4.493
		l-44.137-76.448C205.511,87.122,226.152,81.349,248,80.21V168.518z M120.563,163.043l76.448,44.137
		c-2.231,5.283-3.755,10.931-4.493,16.82H104.21C105.349,202.152,111.122,181.511,120.563,163.043z M192.518,240
		c0.738,5.889,2.262,11.537,4.493,16.82l-76.448,44.137c-9.441-18.468-15.214-39.109-16.353-60.957H192.518z M264,295.482
		c5.889-0.738,11.537-2.262,16.82-4.493l44.137,76.448c-18.468,9.441-39.109,15.214-60.957,16.353V295.482z M72,232
		c0-89.634,63.626-165.519,151.549-181.138l14.14,14.14c-23.465,2.556-45.496,9.954-65.063,21.186
		c-0.211,0.099-0.421,0.202-0.626,0.32c-0.251,0.145-0.49,0.303-0.72,0.471c-24.89,14.596-45.706,35.412-60.302,60.302
		c-0.167,0.229-0.325,0.469-0.47,0.72c-0.119,0.207-0.224,0.418-0.323,0.631C96.075,173.213,88,201.681,88,232
		s8.075,58.787,22.185,83.37c0.099,0.212,0.204,0.423,0.323,0.63c0.114,0.197,0.247,0.375,0.375,0.558
		c14.601,24.962,35.454,45.835,60.397,60.463c0.229,0.167,0.468,0.325,0.72,0.471c0.146,0.084,0.298,0.146,0.446,0.22
		C197.07,391.887,225.605,400,256,400c30.396,0,58.931-8.114,83.555-22.289c0.148-0.074,0.299-0.135,0.445-0.219
		c0.251-0.146,0.49-0.303,0.72-0.471c24.944-14.628,45.797-35.501,60.397-60.463c0.128-0.184,0.261-0.361,0.375-0.558
		c0.119-0.207,0.224-0.418,0.323-0.63C415.925,290.787,424,262.319,424,232s-8.075-58.787-22.185-83.369
		c-0.099-0.213-0.204-0.424-0.323-0.631c-0.145-0.251-0.303-0.49-0.47-0.719c-14.597-24.89-35.413-45.706-60.303-60.302
		c-0.229-0.168-0.468-0.326-0.72-0.471c-0.208-0.12-0.42-0.225-0.634-0.324c-19.564-11.229-41.593-18.627-65.055-21.182l14.14-14.14
		C376.369,66.481,440,142.376,440,232c0,101.458-82.542,184-184,184S72,333.458,72,232z M368,496H144v-24h224V496z M304,456h-96
		v-29.837c15.384,3.804,31.458,5.837,48,5.837s32.616-2.033,48-5.837V456z"/>
	<path style="fill:#2D2B29;" d="M283.512,216.908l-13.158-3.879l-7.755-11.315c-1.492-2.177-3.96-3.478-6.599-3.478
		s-5.107,1.301-6.599,3.478l-7.755,11.315l-13.158,3.879c-2.531,0.746-4.531,2.692-5.346,5.201c-0.815,2.51-0.341,5.26,1.268,7.351
		l8.365,10.872l-0.377,13.712c-0.072,2.638,1.16,5.142,3.295,6.692s4.896,1.949,7.382,1.065L256,257.206l12.925,4.596
		c0.872,0.31,1.778,0.462,2.68,0.462c1.667,0,3.317-0.521,4.703-1.528c2.135-1.551,3.367-4.055,3.295-6.692l-0.377-13.712
		l8.365-10.872c1.609-2.091,2.083-4.841,1.268-7.351C288.043,219.6,286.043,217.654,283.512,216.908z M264.81,232.83
		c-1.122,1.458-1.707,3.259-1.657,5.099l0.135,4.887l-4.607-1.638c-0.867-0.308-1.773-0.462-2.68-0.462s-1.813,0.154-2.68,0.462
		l-4.607,1.638l0.135-4.887c0.05-1.839-0.535-3.64-1.657-5.099l-2.982-3.875l4.69-1.383c1.765-0.52,3.296-1.633,4.337-3.151
		l2.764-4.033l2.764,4.033c1.041,1.518,2.572,2.631,4.337,3.151l4.69,1.383L264.81,232.83z"/>
</g>
</svg>